HIERARCHY
ROOT Hips
{
	OFFSET 0.000000 83.214638 0.000000
	CHANNELS 6 Xposition Yposition Zposition Xrotation Yrotation Zrotation
	JOINT Pelvis
	{
		OFFSET 0.000000 0.000000 0.000000
		CHANNELS 3 Xrotation Yrotation Zrotation
		JOINT LeftUpLeg
		{
			OFFSET 8.479700 -4.795502 -0.379100
			CHANNELS 3 Xrotation Yrotation Zrotation
			JOINT LeftLeg
			{
				OFFSET 0.024144 -32.555107 0.112900
				CHANNELS 3 Xrotation Yrotation Zrotation
				JOINT LeftFoot
				{
					OFFSET -0.024144 -32.638630 -3.012600
					CHANNELS 3 Xrotation Yrotation Zrotation
					JOINT LeftToeBase
					{
						OFFSET 0.970200 -13.225400 11.864200
						CHANNELS 3 Xrotation Yrotation Zrotation
						End Site
						{
							OFFSET 0.000000 12.319262 0.000000
						}
					}
					JOINT LFootTongue
					{
						OFFSET 1.142400 -1.059800 6.665200
						CHANNELS 3 Xrotation Yrotation Zrotation
						End Site
						{
							OFFSET 0.000000 12.319262 0.000000
						}
					}
				}
				JOINT LeftPantLeg
				{
					OFFSET 0.918482 -16.533964 -2.284700
					CHANNELS 3 Xrotation Yrotation Zrotation
					End Site
					{
						OFFSET 0.350399 24.744368 0.000000
					}
				}
			}
		}
		JOINT RightUpLeg
		{
			OFFSET -8.479700 -4.795502 -0.379100
			CHANNELS 3 Xrotation Yrotation Zrotation
			JOINT RightLeg
			{
				OFFSET -0.023144 -32.555092 0.112900
				CHANNELS 3 Xrotation Yrotation Zrotation
				JOINT RightFoot
				{
					OFFSET 0.023144 -32.638641 -3.012700
					CHANNELS 3 Xrotation Yrotation Zrotation
					JOINT RightToeBase
					{
						OFFSET -0.970200 -13.225400 11.864200
						CHANNELS 3 Xrotation Yrotation Zrotation
						End Site
						{
							OFFSET 0.000000 12.319244 0.000000
						}
					}
					JOINT RFootTongue
					{
						OFFSET -1.142200 -1.059800 6.665200
						CHANNELS 3 Xrotation Yrotation Zrotation
						End Site
						{
							OFFSET 0.000000 12.319243 0.000000
						}
					}
				}
				JOINT RightPantLeg
				{
					OFFSET -0.919482 -16.533978 -2.284800
					CHANNELS 3 Xrotation Yrotation Zrotation
					End Site
					{
						OFFSET -0.350400 24.744419 0.000000
					}
				}
			}
		}
	}
	JOINT Spine
	{
		OFFSET 0.000000 7.722000 1.166200
		CHANNELS 3 Xrotation Yrotation Zrotation
		JOINT Spine1
		{
			OFFSET 0.000000 12.024101 0.248800
			CHANNELS 3 Xrotation Yrotation Zrotation
			JOINT Spine2
			{
				OFFSET 0.000000 11.502998 -0.491200
				CHANNELS 3 Xrotation Yrotation Zrotation
				JOINT Neck
				{
					OFFSET 0.000000 18.430702 -3.123100
					CHANNELS 3 Xrotation Yrotation Zrotation
					JOINT Head
					{
						OFFSET 0.000000 9.051102 1.034000
						CHANNELS 3 Xrotation Yrotation Zrotation
						JOINT HairB
						{
							OFFSET 0.208400 24.786102 24.822300
							CHANNELS 3 Xrotation Yrotation Zrotation
							End Site
							{
								OFFSET 0.000000 32.263779 0.000000
							}
						}
						JOINT HairA
						{
							OFFSET -7.081100 24.428299 23.196600
							CHANNELS 3 Xrotation Yrotation Zrotation
							End Site
							{
								OFFSET 0.000000 32.263779 0.000000
							}
						}
						JOINT Hat
						{
							OFFSET 16.728800 15.048294 -15.439601
							CHANNELS 3 Xrotation Yrotation Zrotation
							End Site
							{
								OFFSET 0.000000 32.263779 0.000000
							}
						}
					}
				}
				JOINT LeftShoulder
				{
					OFFSET 6.197800 13.665199 -4.064700
					CHANNELS 3 Xrotation Yrotation Zrotation
					JOINT LeftArm
					{
						OFFSET 7.778100 -0.187103 -1.709300
						CHANNELS 3 Xrotation Yrotation Zrotation
						JOINT LeftForeArm
						{
							OFFSET 22.049376 0.000000 0.000000
							CHANNELS 3 Xrotation Yrotation Zrotation
							JOINT LeftHand
							{
								OFFSET 23.009392 0.000000 0.000000
								CHANNELS 3 Xrotation Yrotation Zrotation
								JOINT LeftHandThumb1
								{
									OFFSET 3.507191 -2.063065 3.133727
									CHANNELS 3 Xrotation Yrotation Zrotation
									JOINT LeftHandThumb2
									{
										OFFSET 3.101337 -1.790558 1.790558
										CHANNELS 3 Xrotation Yrotation Zrotation
										JOINT LeftHandThumb3
										{
											OFFSET 3.058640 -1.765907 1.765906
											CHANNELS 3 Xrotation Yrotation Zrotation
											End Site
											{
												OFFSET -0.415260 3.926476 -0.049563
											}
										}
									}
								}
								JOINT LeftHandIndex1
								{
									OFFSET 11.334419 -0.901459 3.706815
									CHANNELS 3 Xrotation Yrotation Zrotation
									JOINT LeftHandIndex2
									{
										OFFSET 3.283112 0.000000 0.000000
										CHANNELS 3 Xrotation Yrotation Zrotation
										JOINT LeftHandIndex3
										{
											OFFSET 3.323853 0.000000 0.000000
											CHANNELS 3 Xrotation Yrotation Zrotation
											End Site
											{
												OFFSET -1.135597 3.097809 0.402452
											}
										}
									}
								}
								JOINT LeftHandMiddle1
								{
									OFFSET 11.335861 0.000000 0.000000
									CHANNELS 3 Xrotation Yrotation Zrotation
									JOINT LeftHandMiddle2
									{
										OFFSET 3.410492 0.000000 0.000000
										CHANNELS 3 Xrotation Yrotation Zrotation
										JOINT LeftHandMiddle3
										{
											OFFSET 3.312172 0.000000 0.000000
											CHANNELS 3 Xrotation Yrotation Zrotation
											End Site
											{
												OFFSET -1.150200 3.080154 0.400270
											}
										}
									}
								}
								JOINT LeftHandRing1
								{
									OFFSET 11.514786 -0.013176 -3.003090
									CHANNELS 3 Xrotation Yrotation Zrotation
									JOINT LeftHandRing2
									{
										OFFSET 3.053307 0.000000 0.000000
										CHANNELS 3 Xrotation Yrotation Zrotation
										JOINT LeftHandRing3
										{
											OFFSET 3.295807 0.000000 0.000000
											CHANNELS 3 Xrotation Yrotation Zrotation
											End Site
											{
												OFFSET -1.281006 3.013344 0.375733
											}
										}
									}
								}
								JOINT LeftHandPinky1
								{
									OFFSET 10.518692 -0.960396 -5.730441
									CHANNELS 3 Xrotation Yrotation Zrotation
									JOINT LeftHandPinky2
									{
										OFFSET 2.861649 0.000000 0.000000
										CHANNELS 3 Xrotation Yrotation Zrotation
										JOINT LeftHandPinky3
										{
											OFFSET 2.863380 0.000000 0.000000
											CHANNELS 3 Xrotation Yrotation Zrotation
											End Site
											{
												OFFSET -0.843597 2.711159 0.369971
											}
										}
									}
								}
							}
							JOINT LSleeve
							{
								OFFSET 6.676277 -0.344902 -1.011730
								CHANNELS 3 Xrotation Yrotation Zrotation
								End Site
								{
									OFFSET 0.000000 14.885353 0.000000
								}
							}
						}
					}
				}
				JOINT RightShoulder
				{
					OFFSET -6.197800 13.665199 -4.064700
					CHANNELS 3 Xrotation Yrotation Zrotation
					JOINT RightArm
					{
						OFFSET -7.778100 -0.187103 -1.709300
						CHANNELS 3 Xrotation Yrotation Zrotation
						JOINT RightForeArm
						{
							OFFSET -22.049376 0.000000 0.000000
							CHANNELS 3 Xrotation Yrotation Zrotation
							JOINT RightHand
							{
								OFFSET -23.009392 0.000000 0.000000
								CHANNELS 3 Xrotation Yrotation Zrotation
								JOINT RightHandThumb1
								{
									OFFSET -3.507191 -2.063065 3.133727
									CHANNELS 3 Xrotation Yrotation Zrotation
									JOINT RightHandThumb2
									{
										OFFSET -3.101337 -1.790558 1.790558
										CHANNELS 3 Xrotation Yrotation Zrotation
										JOINT RightHandThumb3
										{
											OFFSET -3.058640 -1.765907 1.765906
											CHANNELS 3 Xrotation Yrotation Zrotation
											End Site
											{
												OFFSET 0.415260 3.926476 -0.049563
											}
										}
									}
								}
								JOINT RightHandIndex1
								{
									OFFSET -11.334419 -0.901459 3.706815
									CHANNELS 3 Xrotation Yrotation Zrotation
									JOINT RightHandIndex2
									{
										OFFSET -3.283112 0.000000 0.000000
										CHANNELS 3 Xrotation Yrotation Zrotation
										JOINT RightHandIndex3
										{
											OFFSET -3.323853 0.000000 0.000000
											CHANNELS 3 Xrotation Yrotation Zrotation
											End Site
											{
												OFFSET 1.135597 3.097809 0.402452
											}
										}
									}
								}
								JOINT RightHandMiddle1
								{
									OFFSET -11.335861 0.000000 0.000000
									CHANNELS 3 Xrotation Yrotation Zrotation
									JOINT RightHandMiddle2
									{
										OFFSET -3.410492 0.000000 0.000000
										CHANNELS 3 Xrotation Yrotation Zrotation
										JOINT RightHandMiddle3
										{
											OFFSET -3.312172 0.000000 0.000000
											CHANNELS 3 Xrotation Yrotation Zrotation
											End Site
											{
												OFFSET 1.150200 3.080154 0.400270
											}
										}
									}
								}
								JOINT RightHandRing1
								{
									OFFSET -11.514786 -0.013176 -3.003090
									CHANNELS 3 Xrotation Yrotation Zrotation
									JOINT RightHandRing2
									{
										OFFSET -3.053307 0.000000 0.000000
										CHANNELS 3 Xrotation Yrotation Zrotation
										JOINT RightHandRing3
										{
											OFFSET -3.295807 0.000000 0.000000
											CHANNELS 3 Xrotation Yrotation Zrotation
											End Site
											{
												OFFSET 1.281006 3.013344 0.375733
											}
										}
									}
								}
								JOINT RightHandPinky1
								{
									OFFSET -10.518692 -0.960396 -5.730441
									CHANNELS 3 Xrotation Yrotation Zrotation
									JOINT RightHandPinky2
									{
										OFFSET -2.861649 0.000000 0.000000
										CHANNELS 3 Xrotation Yrotation Zrotation
										JOINT RightHandPinky3
										{
											OFFSET -2.863380 0.000000 0.000000
											CHANNELS 3 Xrotation Yrotation Zrotation
											End Site
											{
												OFFSET 0.843597 2.711159 0.369971
											}
										}
									}
								}
							}
							JOINT RSleeve
							{
								OFFSET -6.676277 -0.344902 -1.011730
								CHANNELS 3 Xrotation Yrotation Zrotation
								End Site
								{
									OFFSET 0.000000 14.885353 0.000000
								}
							}
						}
					}
				}
				JOINT Backpack
				{
					OFFSET 0.000000 -2.471497 36.677502
					CHANNELS 3 Xrotation Yrotation Zrotation
					End Site
					{
						OFFSET 0.000000 20.427315 0.000000
					}
				}
				JOINT Hood
				{
					OFFSET 0.000000 18.754097 -10.431000
					CHANNELS 3 Xrotation Yrotation Zrotation
					JOINT Hood1
					{
						OFFSET 0.000000 -5.011002 -7.685901
						CHANNELS 3 Xrotation Yrotation Zrotation
						End Site
						{
							OFFSET 0.000000 9.175140 0.000000
						}
					}
				}
				JOINT LHoodieString
				{
					OFFSET 5.250500 16.397697 3.089900
					CHANNELS 3 Xrotation Yrotation Zrotation
					JOINT LHoodieString1
					{
						OFFSET 0.257700 -6.364304 3.694600
						CHANNELS 3 Xrotation Yrotation Zrotation
						JOINT LHoodieString2
						{
							OFFSET 0.000000 -9.643799 2.679100
							CHANNELS 3 Xrotation Yrotation Zrotation
							End Site
							{
								OFFSET 0.000000 10.009018 0.000000
							}
						}
					}
				}
				JOINT RHoodieString
				{
					OFFSET -5.250500 16.397697 3.089900
					CHANNELS 3 Xrotation Yrotation Zrotation
					JOINT RHoodieString1
					{
						OFFSET -0.257700 -6.364304 3.694600
						CHANNELS 3 Xrotation Yrotation Zrotation
						JOINT RHoodieString2
						{
							OFFSET 0.000000 -9.643799 2.679100
							CHANNELS 3 Xrotation Yrotation Zrotation
							End Site
							{
								OFFSET 0.000000 10.009018 0.000000
							}
						}
					}
				}
			}
			JOINT LBackpack_Strap
			{
				OFFSET 15.223200 -7.719803 -6.610900
				CHANNELS 3 Xrotation Yrotation Zrotation
				End Site
				{
					OFFSET 0.000000 16.040596 0.000000
				}
			}
			JOINT RBackpack_Strap
			{
				OFFSET -15.223000 -7.719803 -6.610900
				CHANNELS 3 Xrotation Yrotation Zrotation
				End Site
				{
					OFFSET 0.000000 16.040596 0.000000
				}
			}
		}
	}
	JOINT BoyFacialAnim_Joint
	{
		OFFSET 1.000000 -82.208099 -1.550900
		CHANNELS 3 Xrotation Yrotation Zrotation
		End Site
		{
			OFFSET 0.000000 30.012791 0.000000
		}
	}
}
MOTION
Frames: 4
Frame Time: 0.033333
0.833733 74.989891 -0.427789 9.402993 -61.628462 10.035033 -0.000000 -0.000000 -0.000000 -36.626517 11.909931 23.485915 36.103991 -6.761267 1.195576 -5.484244 -2.273367 -16.033203 0.000000 0.000002 -0.000000 0.000000 0.000002 -0.000000 0.000000 -0.000004 -0.000001 -31.217438 -19.582689 -32.387067 35.174682 3.513310 -4.082018 -11.014828 0.856481 22.474447 -0.000000 -0.000000 0.000000 -0.000000 -0.000000 0.000000 -0.000000 0.000000 0.000001 15.059015 -0.324390 -4.284721 5.838213 0.560066 -2.796523 5.814752 0.616343 -2.855658 -3.516057 1.455312 3.641225 -19.748362 54.865424 2.242268 -0.000000 0.000000 -0.000000 -0.000000 0.000000 -0.000000 -0.000000 0.000000 -0.000000 1.695623 -3.073505 -12.223318 -39.040876 26.196765 -35.021665 0.547621 -46.836748 0.508460 -10.319233 -0.082787 0.764108 40.109941 -15.297156 -0.360502 5.639823 28.097928 11.338826 0.000001 -0.000002 0.000001 6.882259 2.840077 -61.140404 8.248005 7.640063 -89.897905 0.000002 -0.000000 -0.000004 -2.345512 4.688863 -62.655204 8.754120 9.897068 -87.051307 0.000005 -0.000004 -0.000000 -9.042453 10.045692 -60.766171 8.524106 9.508832 -66.893035 0.000000 0.000002 -0.000002 -17.946906 14.755002 -51.485850 8.868450 8.667075 -84.811975 -0.000005 0.000001 -0.000000 -0.000002 -0.000000 0.000003 0.494662 7.137292 8.689487 8.476224 -9.397434 53.389031 -22.907102 36.390264 18.051140 -27.316843 10.569164 -18.566513 -2.302756 -6.148687 10.713366 2.387889 -23.866776 -8.778002 -0.000000 0.000000 0.000003 -0.048082 0.490736 0.936980 0.032108 -0.133812 5.340030 -0.000002 -0.000001 -0.000002 0.346409 -5.928094 2.620488 1.431947 -4.222718 24.133509 0.000001 0.000002 -0.000003 1.195390 -11.750733 4.165050 1.790307 -3.778137 26.868873 0.000000 0.000001 0.000004 2.121613 -19.191296 11.459648 3.357894 -2.135461 18.882666 0.000000 -0.000001 0.000000 -0.000001 -0.000000 0.000001 -0.000001 0.000001 -0.000000 -0.000001 0.000001 -0.000000 -0.000001 0.000001 -0.000000 -0.000001 0.000001 -0.000000 -0.000001 0.000001 -0.000000 -0.000001 -0.000001 0.000001 -0.000001 0.000001 -0.000000 -0.000001 0.000001 -0.000000 -0.000001 -0.000001 0.000001 0.000001 -0.000001 0.000001 0.000001 -0.000001 0.000001 -0.000000 -0.000000 -0.000000 
0.835027 74.986198 -0.430068 9.331502 -61.632670 9.976037 -0.000000 -0.000001 -0.000000 -36.603346 11.916429 23.489540 36.119130 -6.772447 1.195097 -5.490672 -2.273408 -16.030565 0.000000 0.000000 0.000000 0.000000 0.000000 0.000000 0.000000 0.000000 0.000003 -31.201206 -19.585053 -32.400727 35.199223 3.526337 -4.083189 -11.027300 0.853906 22.471068 0.000000 -0.000000 0.000000 0.000000 -0.000000 0.000000 0.000001 -0.000000 0.000000 15.061038 -0.324333 -4.285425 5.835862 0.560037 -2.796368 5.807271 0.614013 -2.855919 -3.490162 1.458347 3.617439 -19.683786 54.856678 2.193252 -0.000000 0.000000 0.000000 -0.000000 0.000000 0.000000 -0.000000 0.000000 0.000000 1.681943 -3.052402 -12.215432 -38.986498 26.191006 -35.027816 0.559617 -46.933781 0.520712 -10.322385 -0.045895 0.855800 40.109927 -15.297161 -0.360500 5.639819 28.097926 11.338826 0.000001 -0.000000 -0.000001 6.882260 2.840074 -61.140404 8.248008 7.640069 -89.897898 -0.000001 -0.000000 -0.000002 -2.345509 4.688856 -62.655204 8.754124 9.897072 -87.051314 0.000005 -0.000001 -0.000000 -9.042452 10.045690 -60.766164 8.524103 9.508828 -66.893035 0.000002 -0.000001 -0.000001 -17.946903 14.755000 -51.485850 8.868448 8.667080 -84.811975 -0.000003 0.000002 -0.000002 -0.000003 0.000000 0.000000 0.420387 7.084249 8.681952 8.571607 -9.367845 53.383430 -22.923450 36.443991 18.077344 -27.314775 10.557132 -18.682659 -2.264258 -6.195321 10.692631 2.402995 -23.922166 -8.792113 0.000000 -0.000000 0.000002 -0.048246 0.506218 0.838463 0.030843 -0.119101 5.238451 -0.000002 -0.000001 -0.000000 0.345720 -5.924005 2.588749 1.428658 -4.216987 24.080930 0.000001 0.000001 0.000002 1.202490 -11.750265 4.211674 1.790556 -3.778368 26.873386 0.000001 0.000002 0.000004 2.125112 -19.210223 11.579143 3.361805 -2.146097 18.948760 0.000001 -0.000000 -0.000002 -0.000002 -0.000001 0.000001 -0.000001 0.000000 -0.000000 -0.000001 0.000000 -0.000000 -0.000001 0.000000 -0.000000 -0.000001 0.000000 -0.000000 -0.000001 0.000000 -0.000000 -0.000001 -0.000002 0.000001 -0.000001 0.000000 -0.000000 -0.000001 0.000000 -0.000000 -0.000001 -0.000002 0.000001 0.000002 -0.000002 0.000000 0.000002 -0.000002 0.000000 -0.000000 -0.000001 -0.000000 
0.838155 74.977943 -0.435398 9.173538 -61.641706 9.845654 0.000000 0.000001 0.000000 -36.551669 11.929823 23.497125 36.152427 -6.798369 1.193672 -5.504698 -2.271316 -16.024539 0.000000 0.000002 -0.000000 0.000000 0.000002 0.000000 -0.000001 -0.000002 0.000002 -31.165101 -19.589095 -32.430069 35.254312 3.552271 -4.086554 -11.055624 0.849686 22.464656 0.000000 -0.000000 -0.000000 0.000000 -0.000000 -0.000000 -0.000000 0.000000 -0.000001 15.066289 -0.323884 -4.286631 5.836124 0.560932 -2.796657 5.800338 0.611815 -2.855887 -3.460914 1.449240 3.589066 -19.613086 54.848294 2.138408 0.000000 -0.000000 0.000000 0.000000 -0.000000 0.000000 0.000000 -0.000000 0.000000 1.674619 -3.034927 -12.208975 -38.939605 26.188228 -35.028181 0.576978 -47.032980 0.536689 -10.325008 -0.008209 0.955948 40.109931 -15.297158 -0.360504 5.639817 28.097926 11.338824 0.000000 0.000000 -0.000001 6.882255 2.840075 -61.140411 8.248002 7.640067 -89.897905 -0.000000 -0.000000 -0.000002 -2.345513 4.688857 -62.655210 8.754123 9.897070 -87.051301 0.000001 0.000003 -0.000001 -9.042452 10.045690 -60.766171 8.524103 9.508831 -66.893035 -0.000000 0.000001 -0.000002 -17.946904 14.755003 -51.485850 8.868447 8.667077 -84.811989 -0.000001 0.000003 -0.000001 0.000002 0.000001 -0.000000 0.349141 7.035043 8.674701 8.664143 -9.349064 53.382764 -22.909428 36.524297 18.090948 -27.323549 10.508105 -18.822239 -2.215548 -6.254815 10.666068 2.421901 -23.992989 -8.809620 0.000000 -0.000001 0.000006 -0.048416 0.516600 0.772256 0.029901 -0.107832 5.160613 -0.000001 0.000001 0.000007 0.346022 -5.924359 2.594380 1.425860 -4.215244 24.055708 0.000001 -0.000001 0.000001 1.214743 -11.750141 4.297599 1.793675 -3.781668 26.909414 -0.000001 0.000003 0.000003 2.129634 -19.234388 11.731458 3.366884 -2.161313 19.042853 -0.000000 0.000000 0.000000 0.000001 -0.000002 0.000001 0.000003 0.000001 -0.000002 0.000003 0.000001 -0.000002 0.000003 0.000001 -0.000002 0.000003 0.000001 -0.000002 0.000003 0.000001 -0.000002 0.000001 0.000001 0.000001 0.000003 0.000001 -0.000002 0.000003 0.000001 -0.000002 0.000001 0.000001 0.000001 -0.000000 -0.000001 0.000001 -0.000000 -0.000001 0.000001 0.000000 0.000001 0.000000 
0.841101 74.965080 -0.442262 8.983210 -61.651897 9.688484 -0.000001 0.000002 -0.000000 -36.495661 11.943228 23.508499 36.204480 -6.831285 1.192713 -5.527163 -2.267825 -16.018090 0.000000 -0.000002 0.000000 0.000000 -0.000002 0.000000 0.000001 -0.000001 0.000001 -31.127276 -19.589642 -32.467157 35.335471 3.583775 -4.091295 -11.097458 0.842452 22.457128 0.000000 -0.000000 -0.000000 0.000000 -0.000000 -0.000000 -0.000001 -0.000000 -0.000000 15.079832 -0.322081 -4.288563 5.841838 0.563179 -2.797504 5.795660 0.610750 -2.855708 -3.429414 1.432707 3.557044 -19.534198 54.840733 2.078036 -0.000000 -0.000000 0.000000 -0.000000 -0.000000 0.000000 -0.000000 -0.000000 0.000000 1.671409 -3.020572 -12.205677 -38.899147 26.188904 -35.025043 0.575581 -47.132533 0.538132 -10.327605 0.027515 1.053969 40.109934 -15.297161 -0.360501 5.639820 28.097925 11.338829 0.000000 -0.000001 -0.000002 6.882260 2.840078 -61.140404 8.248002 7.640061 -89.897898 0.000001 0.000000 -0.000002 -2.345508 4.688863 -62.655204 8.754128 9.897068 -87.051307 0.000001 -0.000000 -0.000003 -9.042452 10.045692 -60.766171 8.524104 9.508828 -66.893035 -0.000000 -0.000000 -0.000000 -17.946908 14.754998 -51.485846 8.868450 8.667077 -84.811982 0.000001 0.000002 -0.000002 0.000002 -0.000000 0.000000 0.281592 6.988921 8.667879 8.760594 -9.349733 53.386500 -22.905297 36.635021 18.119023 -27.328144 10.443808 -18.973825 -2.157133 -6.326079 10.634611 2.443024 -24.078370 -8.830246 -0.000000 -0.000000 -0.000002 -0.048591 0.520092 0.740576 0.029368 -0.100899 5.108271 -0.000001 -0.000003 0.000007 0.347557 -5.931170 2.639635 1.425923 -4.215648 24.060108 0.000001 -0.000001 0.000001 1.229224 -11.751650 4.419888 1.800282 -3.790962 26.975883 -0.000001 -0.000001 0.000004 2.135168 -19.263150 11.913801 3.373387 -2.180731 19.162697 -0.000001 -0.000001 -0.000002 0.000000 0.000001 0.000000 -0.000000 -0.000001 0.000002 -0.000000 -0.000001 0.000002 -0.000000 -0.000001 0.000002 -0.000000 -0.000001 0.000002 -0.000000 -0.000001 0.000002 -0.000002 0.000002 -0.000000 -0.000000 -0.000001 0.000002 -0.000000 -0.000001 0.000002 -0.000002 0.000002 -0.000000 0.000001 0.000001 -0.000000 0.000001 0.000001 -0.000000 -0.000001 0.000002 -0.000000 
